<svg xmlns="http://www.w3.org/2000/svg" width="11" height="11" viewBox="0 0 11 11" fill="none">
  <g filter="url(#filter0_d_3561_13914)">
    <g filter="url(#filter1_d_3561_13914)">
      <path fill-rule="evenodd" clip-rule="evenodd" d="M3.4375 2.23438V2.75H1.89062C1.60585 2.75 1.375 2.98085 1.375 3.26562C1.375 3.5504 1.60585 3.78125 1.89062 3.78125H2.09687L2.65714 9.38386C2.70985 9.91104 3.15346 10.3125 3.68327 10.3125H7.31673C7.84654 10.3125 8.29015 9.91104 8.34286 9.38386L8.90312 3.78125H9.10938C9.39415 3.78125 9.625 3.5504 9.625 3.26562C9.625 2.98085 9.39415 2.75 9.10938 2.75H7.5625V2.23438C7.5625 1.38006 6.86994 0.6875 6.01562 0.6875H4.98438C4.13006 0.6875 3.4375 1.38006 3.4375 2.23438ZM4.98438 1.71875C4.6996 1.71875 4.46875 1.9496 4.46875 2.23438V2.75H6.53125V2.23438C6.53125 1.9496 6.3004 1.71875 6.01562 1.71875H4.98438ZM4.15968 4.12564C4.44409 4.11142 4.68619 4.33046 4.70041 4.61488L4.88947 8.39613C4.90369 8.68054 4.68465 8.92264 4.40024 8.93686C4.11582 8.95108 3.87373 8.73204 3.85951 8.44762L3.67044 4.66637C3.65622 4.38196 3.87526 4.13986 4.15968 4.12564ZM6.84086 4.12564C7.12528 4.13986 7.34432 4.38196 7.33009 4.66637L7.14103 8.44762C7.12681 8.73204 6.88472 8.95108 6.6003 8.93686C6.31588 8.92264 6.09685 8.68054 6.11107 8.39613L6.30013 4.61488C6.31435 4.33046 6.55644 4.11142 6.84086 4.12564Z" fill="#181818"/>
    </g>
  </g>
  <defs>
    <filter id="filter0_d_3561_13914" x="0" y="0" width="11" height="11.5" filterUnits="userSpaceOnUse" color-interpolation-filters="sRGB">
      <feFlood flood-opacity="0" result="BackgroundImageFix"/>
      <feColorMatrix in="SourceAlpha" type="matrix" values="0 0 0 0 0 0 0 0 0 0 0 0 0 0 0 0 0 0 127 0" result="hardAlpha"/>
      <feOffset dy="0.5"/>
      <feComposite in2="hardAlpha" operator="out"/>
      <feColorMatrix type="matrix" values="0 0 0 0 1 0 0 0 0 1 0 0 0 0 1 0 0 0 0.15 0"/>
      <feBlend mode="normal" in2="BackgroundImageFix" result="effect1_dropShadow_3561_13914"/>
      <feBlend mode="normal" in="SourceGraphic" in2="effect1_dropShadow_3561_13914" result="shape"/>
    </filter>
    <filter id="filter1_d_3561_13914" x="1.375" y="0.6875" width="8.25" height="10.125" filterUnits="userSpaceOnUse" color-interpolation-filters="sRGB">
      <feFlood flood-opacity="0" result="BackgroundImageFix"/>
      <feColorMatrix in="SourceAlpha" type="matrix" values="0 0 0 0 0 0 0 0 0 0 0 0 0 0 0 0 0 0 127 0" result="hardAlpha"/>
      <feOffset dy="0.5"/>
      <feComposite in2="hardAlpha" operator="out"/>
      <feColorMatrix type="matrix" values="0 0 0 0 1 0 0 0 0 1 0 0 0 0 1 0 0 0 0.15 0"/>
      <feBlend mode="normal" in2="BackgroundImageFix" result="effect1_dropShadow_3561_13914"/>
      <feBlend mode="normal" in="SourceGraphic" in2="effect1_dropShadow_3561_13914" result="shape"/>
    </filter>
  </defs>
</svg>
