<svg xmlns="http://www.w3.org/2000/svg" width="14" height="14" viewBox="0 0 14 14" fill="none">
<path fill-rule="evenodd" clip-rule="evenodd" d="M4 3C4.36246 3 4.67306 3.25922 4.7379 3.61584L4.99021 5.00355C5.08335 5.51578 5.48422 5.91665 5.99645 6.00979L7.38416 6.2621C7.74078 6.32694 8 6.63754 8 7C8 7.36246 7.74078 7.67306 7.38416 7.7379L5.99645 7.99021C5.48422 8.08335 5.08335 8.48422 4.99021 8.99645L4.7379 10.3842C4.67306 10.7408 4.36246 11 4 11C3.63754 11 3.32694 10.7408 3.2621 10.3842L3.00979 8.99645C2.91665 8.48422 2.51578 8.08335 2.00355 7.99021L0.615836 7.7379C0.259218 7.67306 0 7.36246 0 7C0 6.63754 0.259218 6.32694 0.615836 6.2621L2.00355 6.00979C2.51578 5.91665 2.91665 5.51578 3.00979 5.00355L3.2621 3.61584C3.32694 3.25922 3.63754 3 4 3Z" fill="#00891D"/>
<path fill-rule="evenodd" clip-rule="evenodd" d="M11 0C11.3349 0 11.6291 0.221983 11.7211 0.543959L11.9159 1.2256C12.0345 1.64086 12.3591 1.96546 12.7744 2.0841L13.456 2.27886C13.778 2.37085 14 2.66514 14 3C14 3.33486 13.778 3.62915 13.456 3.72114L12.7744 3.9159C12.3591 4.03454 12.0345 4.35914 11.9159 4.7744L11.7211 5.45604C11.6291 5.77802 11.3349 6 11 6C10.6651 6 10.3709 5.77802 10.2789 5.45604L10.0841 4.7744C9.96546 4.35914 9.64086 4.03454 9.2256 3.9159L8.54396 3.72114C8.22198 3.62915 8 3.33486 8 3C8 2.66514 8.22198 2.37085 8.54396 2.27886L9.2256 2.0841C9.64086 1.96546 9.96546 1.64086 10.0841 1.2256L10.2789 0.543959C10.3709 0.221983 10.6651 0 11 0Z" fill="#00891D"/>
<path fill-rule="evenodd" clip-rule="evenodd" d="M9 10C9.34415 10 9.64414 10.2342 9.72761 10.5681C9.81431 10.9149 10.0851 11.1857 10.4319 11.2724C10.7658 11.3559 11 11.6558 11 12C11 12.3442 10.7658 12.6441 10.4319 12.7276C10.0851 12.8143 9.81431 13.0851 9.72761 13.4319C9.64414 13.7658 9.34415 14 9 14C8.65585 14 8.35586 13.7658 8.27239 13.4319C8.18569 13.0851 7.9149 12.8143 7.5681 12.7276C7.23422 12.6441 7 12.3442 7 12C7 11.6558 7.23422 11.3559 7.5681 11.2724C7.9149 11.1857 8.18569 10.9149 8.27239 10.5681C8.35586 10.2342 8.65585 10 9 10Z" fill="#00891D"/>
</svg>
